# Blender v2.78 (sub 0) OBJ File: 'boat.blend'
# www.blender.org
mtllib boat.mtl
o Cube.002_Cube.003
v -0.399001 0.982968 -3.276245
v -0.399001 1.473526 -3.276245
v -0.277900 0.956417 -4.074247
v -0.277900 1.187734 -4.074247
v 0.399001 0.982968 -3.276245
v 0.399001 1.473526 -3.276245
v 0.277900 0.956417 -4.074247
v 0.277900 1.187734 -4.074247
vn -0.9887 0.0000 -0.1500
vn 0.0000 0.0000 -1.0000
vn 0.9887 0.0000 -0.1500
vn 0.0000 0.0000 1.0000
vn 0.0000 -0.9994 0.0333
vn 0.0000 0.9414 -0.3372
usemtl None
s off
f 1//1 2//1 4//1 3//1
f 3//2 4//2 8//2 7//2
f 7//3 8//3 6//3 5//3
f 5//4 6//4 2//4 1//4
f 3//5 7//5 5//5 1//5
f 8//6 4//6 2//6 6//6
o Cube.001_Cube.002
v -0.399001 0.982968 -1.807480
v -0.399001 1.473526 -1.807480
v -0.277900 0.956417 -2.605482
v -0.277900 1.187734 -2.605482
v 0.399001 0.982968 -1.807480
v 0.399001 1.473526 -1.807480
v 0.277900 0.956417 -2.605482
v 0.277900 1.187734 -2.605482
vn -0.9887 0.0000 -0.1500
vn 0.0000 0.0000 -1.0000
vn 0.9887 0.0000 -0.1500
vn 0.0000 0.0000 1.0000
vn 0.0000 -0.9994 0.0333
vn 0.0000 0.9414 -0.3372
usemtl None
s off
f 9//7 10//7 12//7 11//7
f 11//8 12//8 16//8 15//8
f 15//9 16//9 14//9 13//9
f 13//10 14//10 10//10 9//10
f 11//11 15//11 13//11 9//11
f 16//12 12//12 10//12 14//12
o Cube_Cube.001
v -0.619838 -1.117535 0.025075
v -1.000000 0.715743 1.040930
v -0.619838 -1.117535 -0.972848
v -1.000000 1.000000 -1.021737
v 0.619838 -1.117535 0.025075
v 1.000000 0.715743 1.040930
v 0.619838 -1.117535 -0.972848
v 1.000000 1.000000 -1.021737
v 0.000000 1.000000 -7.681454
v 0.000000 -1.117535 -4.784435
v -1.000000 0.000000 1.040930
v -1.000000 0.000000 -1.021737
v 1.000000 0.000000 -1.021737
v 1.000000 0.000000 1.040930
v 0.000000 0.000000 -8.767853
v -1.000000 0.000000 3.085325
v -1.000000 0.715743 3.085325
v 1.000000 0.000000 3.085325
v 0.619838 -1.117535 0.993932
v -0.619838 -1.117535 0.993932
v 1.000000 0.715743 3.085325
v -0.468795 2.557542 1.040930
v -0.468795 2.557542 -1.021737
v 0.472737 2.557542 -1.021737
v 0.472737 2.557542 1.040930
v 0.878676 0.647630 1.164948
v -0.878676 0.647630 1.164948
v 0.878676 0.647630 2.961308
v -0.878676 0.647630 2.961308
vn -1.0000 0.0000 0.0000
vn 0.0000 1.0000 0.0000
vn 1.0000 0.0000 0.0000
vn 0.0000 -1.0000 0.0000
vn 0.0000 0.0000 -1.0000
vn -0.9877 0.0745 -0.1371
vn 0.9134 -0.3863 -0.1280
vn 0.9877 0.0745 -0.1371
vn -0.9134 -0.3863 -0.1280
vn 0.9467 -0.3221 0.0000
vn -0.9467 -0.3221 0.0000
vn 0.0000 0.0000 1.0000
vn 0.0000 -0.8820 0.4713
vn 0.0000 0.8765 -0.4814
vn 0.9549 0.2962 0.0204
vn -0.9543 0.2982 0.0206
vn 0.4895 0.8720 0.0000
vn -0.4895 0.8720 0.0000
vn 0.0000 0.8765 0.4814
usemtl None
s off
f 27//13 18//13 20//13 28//13
f 20//14 24//14 25//14
f 29//15 24//15 22//15 30//15
f 30//15 22//15 37//15 34//15
f 19//16 23//16 21//16 17//16
f 24//17 20//17 39//17 40//17
f 28//18 20//18 25//18 31//18
f 29//19 23//19 26//19 31//19
f 23//16 19//16 26//16
f 24//20 29//20 31//20 25//20
f 19//21 28//21 31//21 26//21
f 21//22 30//22 34//22 35//22
f 23//22 29//22 30//22 21//22
f 17//23 27//23 28//23 19//23
f 34//24 37//24 33//24 32//24
f 35//25 34//25 32//25 36//25
f 18//13 27//13 32//13 33//13
f 17//16 21//16 35//16 36//16
f 27//23 17//23 36//23 32//23
f 33//26 37//26 44//26 45//26
f 40//14 39//14 38//14 41//14
f 22//27 24//27 40//27 41//27
f 20//28 18//28 38//28 39//28
f 18//24 22//24 41//24 38//24
f 42//14 43//14 45//14 44//14
f 18//29 33//29 45//29 43//29
f 37//30 22//30 42//30 44//30
f 22//31 18//31 43//31 42//31
