# Blender v2.75 (sub 0) OBJ File: 'boat.blend'
# www.blender.org
mtllib boat.mtl
o Plane
v 0.097619 2.424652 0.009876
v 3.765889 2.424652 0.009876
v 0.097619 7.642097 0.009876
v 0.097619 7.642097 0.060633
v 0.097619 2.424652 0.060633
v 3.765889 2.424652 0.060633
v -0.114881 2.452797 0.082741
v -3.428385 2.452797 0.082741
v -0.114881 9.721418 0.082742
v -0.114881 9.721418 -0.012232
v -0.114881 2.452797 -0.012233
v -3.428385 2.452797 -0.012233
v -0.000000 0.482489 -0.093635
v -0.000000 9.702116 -0.093635
v 0.093635 0.482489 0.000000
v 0.093635 9.702116 0.000000
v -0.000000 0.482489 0.093635
v -0.000000 9.702116 0.093636
v -0.093635 0.482489 0.000000
v -0.093635 9.702116 0.000000
vn 0.000000 -0.000000 -1.000000
vn 0.000000 0.000000 1.000000
vn 0.818000 0.575200 0.000000
vn 0.000000 -1.000000 0.000000
vn -1.000000 -0.000000 0.000000
vn -0.909900 0.414800 0.000000
vn 1.000000 0.000000 0.000000
vn 0.707100 -0.000000 -0.707100
vn 0.707100 -0.000000 0.707100
vn 0.000000 1.000000 0.000000
vn -0.707100 -0.000000 -0.707100
vn -0.707100 -0.000000 0.707100
usemtl None
s off
f 1//1 3//1 2//1
f 5//2 6//2 4//2
f 2//3 3//3 4//3 6//3
f 1//4 2//4 6//4 5//4
f 3//5 1//5 5//5 4//5
f 7//2 9//2 8//2
f 11//1 12//1 10//1
f 8//6 9//6 10//6 12//6
f 7//4 8//4 12//4 11//4
f 9//7 7//7 11//7 10//7
f 13//8 14//8 16//8 15//8
f 15//9 16//9 18//9 17//9
f 16//10 14//10 20//10 18//10
f 19//11 20//11 14//11 13//11
f 17//12 18//12 20//12 19//12
f 13//4 15//4 17//4 19//4
o Cube
v 0.000000 -0.041037 0.579353
v 0.000000 1.958963 1.414214
v -1.992128 -0.041037 0.000000
v -4.998955 1.958963 0.000000
v 1.897513 -0.041037 -0.000000
v 4.996377 1.958963 0.000000
v -0.000000 -0.041037 -0.624215
v -0.000000 1.958963 -1.414214
v -0.000088 1.958963 1.221701
v -4.318550 1.958963 0.000000
v -0.000088 1.958963 -1.221701
v 4.316147 1.958963 -0.000000
v -0.000472 0.521031 0.379028
v -1.340257 0.521031 0.000000
v -0.000472 0.521031 -0.379028
v 1.338622 0.521031 0.000000
vn -0.254000 -0.376900 0.890800
vn -0.259900 -0.371400 -0.891400
vn 0.262400 -0.378600 -0.887600
vn 0.256500 -0.383900 0.887000
vn 0.000000 -1.000000 0.000000
vn 0.000000 1.000000 0.000000
vn -0.237200 0.491200 0.838100
vn 0.237100 0.491100 -0.838200
vn -0.237200 0.491200 -0.838100
vn 0.237100 0.491100 0.838200
usemtl None
s off
f 22//13 24//13 23//13 21//13
f 24//14 28//14 27//14 23//14
f 28//15 26//15 25//15 27//15
f 26//16 22//16 21//16 25//16
f 21//17 23//17 27//17 25//17
f 26//18 28//18 31//18 32//18
f 32//19 31//19 35//19 36//19
f 24//18 22//18 29//18 30//18
f 22//18 26//18 32//18 29//18
f 28//18 24//18 30//18 31//18
f 36//18 35//18 34//18 33//18
f 30//20 29//20 33//20 34//20
f 29//21 32//21 36//21 33//21
f 31//22 30//22 34//22 35//22
