# Blender v2.75 (sub 0) OBJ File: 'conifer.blend'
# www.blender.org
mtllib conifer.mtl
o Cylinder.001
v 0.000000 0.004104 -1.852327
v 1.604162 0.004104 -0.926163
v 1.604162 0.004104 0.926163
v -0.000000 0.004104 1.852326
v 0.000000 5.499519 0.000000
v -1.604162 0.004104 0.926163
v -1.604162 0.004104 -0.926163
v 0.479664 4.125665 0.276934
v 0.709153 2.751811 0.409430
v 1.063730 1.377958 0.614145
v 0.479664 4.125665 -0.276934
v 0.709153 2.751811 -0.409430
v 1.063730 1.377958 -0.614145
v 0.000000 1.377958 -1.228289
v 0.000000 2.751812 -0.818860
v 0.000000 4.125666 -0.553868
v -0.000000 4.125665 0.553868
v -0.000000 2.751811 0.818860
v -0.000000 1.377958 1.228289
v -0.479664 4.125665 -0.276934
v -0.709153 2.751811 -0.409430
v -1.063730 1.377958 -0.614145
v -0.479664 4.125665 0.276934
v -0.709153 2.751811 0.409430
v -1.063730 1.377958 0.614145
v 1.229391 1.431080 0.709789
v 1.229391 1.431080 -0.709789
v 0.000000 1.431081 -1.419578
v -0.000000 1.431080 1.419578
v -1.229391 1.431080 -0.709789
v -1.229391 1.431080 0.709789
v 0.871052 2.784572 0.502902
v 0.871052 2.784572 -0.502902
v 0.000000 2.784573 -1.005804
v -0.000000 2.784572 1.005804
v -0.871052 2.784572 -0.502902
v -0.871052 2.784572 0.502902
v 0.000000 4.080014 -0.429731
v 0.372158 4.080014 0.214865
v 0.372158 4.080014 -0.214865
v -0.000000 4.080014 0.429731
v -0.372158 4.080014 -0.214865
v -0.372158 4.080014 0.214865
vn -0.944100 0.329600 0.000000
vn 0.472100 0.329600 -0.817600
vn -0.472100 0.329600 0.817600
vn 0.472100 0.329600 0.817600
vn -0.472100 0.329600 -0.817600
vn 0.944100 0.329600 0.000000
vn 0.000000 -1.000000 0.000000
vn 0.930600 0.366100 0.000000
vn 0.930400 0.366500 0.000000
vn 0.390900 -0.920400 0.000000
vn -0.465300 0.366100 -0.805900
vn -0.465200 0.366500 -0.805800
vn -0.195400 -0.920400 -0.338500
vn 0.465300 0.366100 0.805900
vn 0.465200 0.366500 0.805800
vn 0.195400 -0.920400 0.338500
vn -0.465300 0.366100 0.805900
vn -0.465200 0.366500 0.805800
vn -0.195400 -0.920400 0.338500
vn 0.465300 0.366100 -0.805900
vn 0.465200 0.366500 -0.805800
vn 0.195400 -0.920400 -0.338500
vn -0.930600 0.366100 0.000000
vn -0.930400 0.366500 0.000000
vn -0.390900 -0.920400 0.000000
vn -0.305400 -0.952200 0.000000
vn 0.152700 -0.952200 -0.264400
vn -0.152700 -0.952200 0.264400
vn 0.152700 -0.952200 0.264400
vn -0.152700 -0.952200 -0.264400
vn 0.305400 -0.952200 0.000000
vn -0.198300 -0.980100 0.000000
vn 0.099200 -0.980100 -0.171800
vn -0.099200 -0.980100 0.171800
vn 0.099200 -0.980100 0.171800
vn -0.099200 -0.980100 -0.171800
vn 0.198300 -0.980100 0.000000
vn -0.933200 0.359400 0.000000
vn 0.466600 0.359400 -0.808200
vn -0.466600 0.359400 0.808200
vn 0.466600 0.359400 0.808200
vn -0.466600 0.359400 -0.808200
vn 0.933200 0.359400 0.000000
usemtl None
s off
f 23//1 5//1 20//1
f 16//2 5//2 11//2
f 17//3 5//3 23//3
f 8//4 5//4 17//4
f 20//5 5//5 16//5
f 11//6 5//6 8//6
f 1//7 2//7 3//7 4//7 6//7 7//7
f 2//8 13//8 10//8 3//8
f 27//9 12//9 9//9 26//9
f 40//10 11//10 8//10 39//10
f 7//11 22//11 14//11 1//11
f 30//12 21//12 15//12 28//12
f 42//13 20//13 16//13 38//13
f 3//14 10//14 19//14 4//14
f 26//15 9//15 18//15 29//15
f 39//16 8//16 17//16 41//16
f 4//17 19//17 25//17 6//17
f 29//18 18//18 24//18 31//18
f 41//19 17//19 23//19 43//19
f 1//20 14//20 13//20 2//20
f 28//21 15//21 12//21 27//21
f 38//22 16//22 11//22 40//22
f 6//23 25//23 22//23 7//23
f 31//24 24//24 21//24 30//24
f 43//25 23//25 20//25 42//25
f 25//26 31//26 30//26 22//26
f 14//27 28//27 27//27 13//27
f 19//28 29//28 31//28 25//28
f 10//29 26//29 29//29 19//29
f 22//30 30//30 28//30 14//30
f 13//31 27//31 26//31 10//31
f 24//32 37//32 36//32 21//32
f 15//33 34//33 33//33 12//33
f 18//34 35//34 37//34 24//34
f 9//35 32//35 35//35 18//35
f 21//36 36//36 34//36 15//36
f 12//37 33//37 32//37 9//37
f 37//38 43//38 42//38 36//38
f 34//39 38//39 40//39 33//39
f 35//40 41//40 43//40 37//40
f 32//41 39//41 41//41 35//41
f 36//42 42//42 38//42 34//42
f 33//43 40//43 39//43 32//43
