# Blender v2.75 (sub 0) OBJ File: 'flag.blend'
# www.blender.org
mtllib flag.mtl
o Cylinder
v -0.000000 -0.029561 -0.080703
v -0.000000 2.890266 -0.080703
v 0.076753 -0.029561 -0.024939
v 0.076753 2.890266 -0.024939
v 0.047436 -0.029561 0.065290
v 0.047436 2.890266 0.065290
v -0.047436 -0.029561 0.065290
v -0.047436 2.890266 0.065290
v -0.076753 -0.029561 -0.024939
v -0.076753 2.890266 -0.024939
v 0.000000 2.809097 -0.000000
v 0.119769 2.900592 0.087016
v -0.045747 2.900592 0.140796
v -0.148043 2.900592 -0.000000
v -0.045747 2.900592 -0.140796
v 0.119769 2.900592 -0.087016
v 0.045747 3.048636 0.140796
v -0.119769 3.048636 0.087016
v -0.119769 3.048636 -0.087016
v 0.045747 3.048636 -0.140796
v 0.148043 3.048636 -0.000000
v 0.000000 3.140132 -0.000000
v -0.000000 2.813894 1.657332
v 0.000000 1.738318 1.657332
v -0.000000 2.813894 0.016036
v 0.000000 1.738318 0.016036
vn 0.587800 0.000000 -0.809000
vn 0.951100 0.000000 0.309000
vn 0.000000 0.000000 1.000000
vn 0.000000 1.000000 -0.000000
vn -0.587800 0.000000 -0.809000
vn -0.951100 0.000000 0.309000
vn 0.000000 -1.000000 -0.000000
vn 0.187600 -0.794700 0.577400
vn 0.607100 -0.794700 0.000000
vn -0.491100 -0.794700 0.356800
vn -0.491100 -0.794700 -0.356800
vn 0.187600 -0.794700 -0.577400
vn 0.982200 -0.187600 0.000000
vn 0.303500 -0.187600 0.934200
vn -0.794600 -0.187600 0.577400
vn -0.794600 -0.187600 -0.577400
vn 0.303500 -0.187600 -0.934200
vn 0.794600 0.187600 0.577400
vn -0.303500 0.187600 0.934200
vn -0.982200 0.187600 0.000000
vn -0.303500 0.187600 -0.934200
vn 0.794600 0.187600 -0.577400
vn 0.491100 0.794700 0.356800
vn -0.187600 0.794700 0.577400
vn -0.607100 0.794700 0.000000
vn -0.187600 0.794700 -0.577400
vn 0.491100 0.794700 -0.356800
vn 1.000000 0.000000 0.000000
usemtl None
s off
f 1//1 2//1 4//1 3//1
f 3//2 4//2 6//2 5//2
f 5//3 6//3 8//3 7//3
f 4//4 2//4 10//4 8//4 6//4
f 9//5 10//5 2//5 1//5
f 7//6 8//6 10//6 9//6
f 1//7 3//7 5//7 7//7 9//7
f 11//8 12//8 13//8
f 12//9 11//9 16//9
f 11//10 13//10 14//10
f 11//11 14//11 15//11
f 11//12 15//12 16//12
f 12//13 16//13 21//13
f 13//14 12//14 17//14
f 14//15 13//15 18//15
f 15//16 14//16 19//16
f 16//17 15//17 20//17
f 12//18 21//18 17//18
f 13//19 17//19 18//19
f 14//20 18//20 19//20
f 15//21 19//21 20//21
f 16//22 20//22 21//22
f 17//23 21//23 22//23
f 18//24 17//24 22//24
f 19//25 18//25 22//25
f 20//26 19//26 22//26
f 21//27 20//27 22//27
f 23//28 24//28 26//28 25//28
