# Blender v2.78 (sub 0) OBJ File: 'flag.blend'
# www.blender.org
mtllib flag.mtl
o Cylinder
v 0.000000 -0.029561 -0.080703
v 0.000000 2.890266 -0.080703
v 0.076753 2.890266 -0.024939
v 0.076753 -0.029561 -0.024939
v 0.047436 2.890266 0.065290
v 0.047436 -0.029561 0.065290
v -0.047436 2.890266 0.065290
v -0.047436 -0.029561 0.065290
v -0.076753 2.890266 -0.024939
v -0.076753 -0.029561 -0.024939
v 0.000000 2.809097 0.000000
v 0.119769 2.900592 0.087016
v -0.045747 2.900592 0.140796
v 0.119769 2.900592 -0.087016
v -0.148043 2.900592 0.000000
v -0.045747 2.900592 -0.140796
v 0.148043 3.048636 0.000000
v 0.045747 3.048636 0.140796
v -0.119769 3.048636 0.087017
v -0.119769 3.048636 -0.087016
v 0.045747 3.048636 -0.140796
v 0.000000 3.140132 0.000001
v -0.014455 2.813894 1.657332
v -0.014455 2.813894 0.016036
v -0.014455 1.738318 0.016036
v -0.014455 1.738318 1.657332
v 0.011441 2.813894 1.657332
v 0.011441 1.738318 1.657332
v 0.011441 1.738318 0.016036
v 0.011441 2.813894 0.016036
v -0.327909 -0.003473 0.327909
v -0.327909 0.049053 0.327909
v -0.327909 -0.003473 -0.327909
v -0.327909 0.049053 -0.327909
v 0.327909 -0.003473 0.327909
v 0.327909 0.049053 0.327909
v 0.327909 -0.003473 -0.327909
v 0.327909 0.049053 -0.327909
vn -1.0000 0.0000 0.0000
vn 0.0000 0.0000 -1.0000
vn 1.0000 0.0000 0.0000
vn 0.0000 0.0000 1.0000
vn 0.0000 -1.0000 -0.0000
vn 0.0000 1.0000 0.0000
vn 0.5878 0.0000 -0.8090
vn 0.9511 -0.0000 0.3090
vn -0.5878 0.0000 -0.8090
vn -0.9511 -0.0000 0.3090
vn 0.1876 -0.7947 0.5774
vn 0.6071 -0.7947 0.0000
vn -0.4911 -0.7947 0.3568
vn -0.4911 -0.7947 -0.3568
vn 0.1876 -0.7947 -0.5774
vn 0.9822 -0.1876 0.0000
vn 0.3035 -0.1876 0.9342
vn -0.7947 -0.1876 0.5774
vn -0.7947 -0.1876 -0.5774
vn 0.3035 -0.1876 -0.9342
vn 0.7946 0.1876 0.5774
vn -0.3035 0.1876 0.9342
vn -0.9822 0.1876 0.0000
vn -0.3035 0.1876 -0.9342
vn 0.7946 0.1876 -0.5774
vn 0.4911 0.7947 0.3568
vn -0.1876 0.7946 0.5774
vn -0.6071 0.7947 0.0000
vn -0.1876 0.7947 -0.5774
vn 0.4911 0.7947 -0.3568
usemtl None
s off
f 31//1 32//1 34//1 33//1
f 33//2 34//2 38//2 37//2
f 37//3 38//3 36//3 35//3
f 35//4 36//4 32//4 31//4
f 33//5 37//5 35//5 31//5
f 38//6 34//6 32//6 36//6
s 1
f 1//7 2//7 3//7 4//7
f 4//8 3//8 5//8 6//8
f 6//4 5//4 7//4 8//4
f 3//6 2//6 9//6 7//6 5//6
f 10//9 9//9 2//9 1//9
f 8//10 7//10 9//10 10//10
f 1//5 4//5 6//5 8//5 10//5
f 11//11 12//11 13//11
f 12//12 11//12 14//12
f 11//13 13//13 15//13
f 11//14 15//14 16//14
f 11//15 16//15 14//15
f 12//16 14//16 17//16
f 13//17 12//17 18//17
f 15//18 13//18 19//18
f 16//19 15//19 20//19
f 14//20 16//20 21//20
f 12//21 17//21 18//21
f 13//22 18//22 19//22
f 15//23 19//23 20//23
f 16//24 20//24 21//24
f 14//25 21//25 17//25
f 18//26 17//26 22//26
f 19//27 18//27 22//27
f 20//28 19//28 22//28
f 21//29 20//29 22//29
f 17//30 21//30 22//30
f 23//1 24//1 25//1 26//1
f 27//3 28//3 29//3 30//3
f 26//5 25//5 29//5 28//5
f 24//6 23//6 27//6 30//6
f 25//2 24//2 30//2 29//2
f 23//4 26//4 28//4 27//4
