# Blender v2.75 (sub 0) OBJ File: 'palm.blend'
# www.blender.org
mtllib palm_lite.mtl
o Cylinder
v -0.094954 4.916549 -0.748894
v -0.443071 -0.013227 0.255807
v -0.000000 4.935053 -0.697289
v -0.000000 -0.013227 0.511615
v 0.094954 4.916549 -0.748894
v 0.443071 -0.013227 0.255807
v 0.094954 4.879541 -0.852103
v 0.443071 -0.013227 -0.255807
v -0.000000 4.861038 -0.903708
v -0.000000 -0.013227 -0.511615
v -0.000000 3.423090 -0.012802
v -0.000000 1.679089 0.361372
v -0.443071 -0.013227 -0.255807
v -0.094954 4.879541 -0.852103
v 0.210993 3.381974 -0.127470
v 0.327032 1.663053 0.173242
v 0.210993 3.299741 -0.356807
v 0.327032 1.630981 -0.203018
v -0.000000 1.614945 -0.391148
v -0.000000 3.258625 -0.471475
v -0.210993 3.381974 -0.127470
v -0.327032 1.663053 0.173242
v -0.210993 3.299741 -0.356807
v -0.327032 1.630981 -0.203018
v 0.177166 4.957252 -0.715779
v 0.177166 4.940485 -0.715779
v -0.188076 4.957252 -0.715779
v -0.188076 4.940485 -0.715779
v 0.087420 4.442463 -3.438916
v 0.087420 4.433936 -3.438916
v -0.098329 4.442463 -3.438916
v -0.098329 4.433936 -3.438916
v 0.609104 4.920656 -2.091417
v -0.620013 4.977081 -2.091417
v 0.609104 4.977081 -2.091417
v -0.620013 4.920656 -2.091417
v -0.020064 5.015847 -1.032219
v -0.020064 4.999080 -1.032219
v 0.169893 5.015847 -0.720260
v 0.169893 4.999080 -0.720260
v -2.299259 4.501059 0.460697
v -2.299259 4.492532 0.460697
v -2.202655 4.501059 0.619347
v -2.202655 4.492532 0.619347
v -1.419661 4.979251 -0.685695
v -0.780416 5.035676 0.364112
v -1.419661 5.035676 -0.685695
v -0.780416 4.979251 0.364112
v -0.234494 4.955204 -0.726467
v -0.232634 4.941184 -0.726467
v -0.083460 4.975238 -0.994225
v -0.081601 4.961218 -0.994225
v 1.838698 4.792202 0.343665
v 1.839643 4.785072 0.343665
v 1.915508 4.802391 0.207494
v 1.916454 4.795261 0.207494
v 0.590668 5.033523 0.164015
v 1.092670 5.148123 -0.737044
v 0.584410 5.080702 0.164015
v 1.098928 5.100944 -0.737044
vn 0.499100 0.076800 0.863100
vn 0.997700 0.066700 -0.012600
vn 0.498800 -0.225700 -0.836800
vn -0.493500 -0.044100 -0.868600
vn -0.497400 0.063400 -0.865200
vn 0.997500 0.065900 -0.023600
vn 0.997600 0.069700 -0.002500
vn -0.997700 0.066700 -0.012600
vn 0.498800 0.357500 0.789600
vn -0.496900 0.182000 0.848500
vn -0.997600 0.069700 -0.002500
vn -0.498800 0.357500 0.789600
vn 0.000000 0.941300 -0.337500
vn -0.498800 -0.225700 -0.836800
vn -0.997500 0.065900 -0.023600
vn 0.496900 0.182000 0.848500
vn -0.499100 0.076800 0.863100
vn 0.000000 -1.000000 0.000000
vn 0.497400 0.063400 -0.865200
vn 0.493500 -0.044100 -0.868600
vn 0.000000 0.000000 -1.000000
vn 0.954100 0.000000 0.299600
vn 0.000000 0.000000 1.000000
vn -0.932600 0.000000 -0.361000
vn -0.000000 -0.999900 0.014400
vn 0.000000 0.929500 -0.368800
vn -0.000000 0.999900 0.014400
vn 0.000000 -0.940500 0.339700
vn -0.954100 0.000000 0.299600
vn 0.932600 0.000000 -0.361000
vn -0.854100 0.000000 0.520100
vn -0.240300 0.000000 -0.970700
vn 0.854100 0.000000 -0.520100
vn 0.176600 0.000000 0.984300
vn 0.012300 -0.999900 -0.007500
vn -0.315000 0.929500 0.191800
vn 0.012300 0.999900 -0.007500
vn 0.290200 -0.940500 -0.176700
vn 0.752100 0.000000 0.659100
vn -0.793400 0.000000 -0.608700
vn 0.861600 0.114300 0.494500
vn -0.725900 -0.096300 0.681100
vn -0.861600 -0.114300 -0.494500
vn 0.768300 0.101900 -0.632000
vn 0.119100 -0.992900 -0.007100
vn 0.195500 0.963600 0.182400
vn -0.143900 0.989600 -0.007100
vn -0.169000 -0.971200 -0.168000
vn 0.209600 0.027800 -0.977400
vn -0.146100 -0.019400 0.989100
usemtl None
s off
f 6//1 16//1 12//1 4//1
f 18//2 17//2 15//2 16//2
f 20//3 9//3 7//3 17//3
f 24//4 23//4 20//4 19//4
f 13//5 24//5 19//5 10//5
f 17//6 7//6 5//6 15//6
f 8//7 18//7 16//7 6//7
f 22//8 21//8 23//8 24//8
f 15//9 5//9 3//9 11//9
f 12//10 11//10 21//10 22//10
f 2//11 22//11 24//11 13//11
f 11//12 3//12 1//12 21//12
f 7//13 9//13 14//13 1//13 3//13 5//13
f 23//14 14//14 9//14 20//14
f 21//15 1//15 14//15 23//15
f 16//16 15//16 11//16 12//16
f 4//17 12//17 22//17 2//17
f 6//18 4//18 2//18 13//18 10//18 8//18
f 10//19 19//19 18//19 8//19
f 19//20 20//20 17//20 18//20
f 31//21 29//21 30//21 32//21
f 35//22 25//22 26//22 33//22
f 25//23 27//23 28//23 26//23
f 34//24 31//24 32//24 36//24
f 36//25 33//25 26//25 28//25
f 34//26 35//26 29//26 31//26
f 27//27 25//27 35//27 34//27
f 32//28 30//28 33//28 36//28
f 27//29 34//29 36//29 28//29
f 29//30 35//30 33//30 30//30
f 43//31 41//31 42//31 44//31
f 47//32 37//32 38//32 45//32
f 37//33 39//33 40//33 38//33
f 46//34 43//34 44//34 48//34
f 48//35 45//35 38//35 40//35
f 46//36 47//36 41//36 43//36
f 39//37 37//37 47//37 46//37
f 44//38 42//38 45//38 48//38
f 39//39 46//39 48//39 40//39
f 41//40 47//40 45//40 42//40
f 55//41 53//41 54//41 56//41
f 59//42 49//42 50//42 57//42
f 49//43 51//43 52//43 50//43
f 58//44 55//44 56//44 60//44
f 60//45 57//45 50//45 52//45
f 58//46 59//46 53//46 55//46
f 51//47 49//47 59//47 58//47
f 56//48 54//48 57//48 60//48
f 51//49 58//49 60//49 52//49
f 53//50 59//50 57//50 54//50
